<mxfile host="app.diagrams.net" modified="2022-09-21T22:38:05.075Z" agent="5.0 (Windows NT 10.0; Win64; x64) AppleWebKit/537.36 (KHTML, like Gecko) Chrome/105.0.0.0 Safari/537.36" etag="z1tMJAZjtnbsEgNaysRp" version="20.2.7" type="github">
  <diagram id="R2lEEEUBdFMjLlhIrx00" name="Page-1">
    <mxGraphModel dx="2272" dy="762" grid="1" gridSize="10" guides="1" tooltips="1" connect="1" arrows="1" fold="1" page="1" pageScale="1" pageWidth="850" pageHeight="1100" math="0" shadow="0" extFonts="Permanent Marker^https://fonts.googleapis.com/css?family=Permanent+Marker">
      <root>
        <mxCell id="0" />
        <mxCell id="1" parent="0" />
        <mxCell id="eAQFiIks2cfKNW8tN4gH-2" value="&lt;font style=&quot;font-size: 20px;&quot;&gt;Calzado&lt;/font&gt;" style="whiteSpace=wrap;html=1;align=center;fontSize=14;" vertex="1" parent="1">
          <mxGeometry x="120" y="180" width="120" height="50" as="geometry" />
        </mxCell>
        <mxCell id="eAQFiIks2cfKNW8tN4gH-4" value="&lt;font style=&quot;font-size: 16px;&quot;&gt;Código&lt;/font&gt;" style="ellipse;whiteSpace=wrap;html=1;align=center;fontStyle=4;fontSize=20;" vertex="1" parent="1">
          <mxGeometry x="-20" y="150" width="100" height="40" as="geometry" />
        </mxCell>
        <mxCell id="eAQFiIks2cfKNW8tN4gH-6" value="Nombre" style="ellipse;whiteSpace=wrap;html=1;align=center;fontSize=16;" vertex="1" parent="1">
          <mxGeometry x="40" y="100" width="100" height="40" as="geometry" />
        </mxCell>
        <mxCell id="eAQFiIks2cfKNW8tN4gH-7" value="Talle" style="ellipse;whiteSpace=wrap;html=1;align=center;fontSize=16;" vertex="1" parent="1">
          <mxGeometry x="130" y="70" width="100" height="40" as="geometry" />
        </mxCell>
        <mxCell id="eAQFiIks2cfKNW8tN4gH-8" value="Género" style="ellipse;whiteSpace=wrap;html=1;align=center;fontSize=16;" vertex="1" parent="1">
          <mxGeometry x="230" y="100" width="100" height="40" as="geometry" />
        </mxCell>
        <mxCell id="eAQFiIks2cfKNW8tN4gH-9" value="PVenta" style="ellipse;whiteSpace=wrap;html=1;align=center;fontSize=16;" vertex="1" parent="1">
          <mxGeometry x="280" y="150" width="90" height="40" as="geometry" />
        </mxCell>
        <mxCell id="eAQFiIks2cfKNW8tN4gH-10" value="Hombre" style="ellipse;whiteSpace=wrap;html=1;align=center;fontSize=16;" vertex="1" parent="1">
          <mxGeometry x="260" y="30" width="100" height="40" as="geometry" />
        </mxCell>
        <mxCell id="eAQFiIks2cfKNW8tN4gH-11" value="Mujer" style="ellipse;whiteSpace=wrap;html=1;align=center;fontSize=16;" vertex="1" parent="1">
          <mxGeometry x="350" y="60" width="100" height="40" as="geometry" />
        </mxCell>
        <mxCell id="eAQFiIks2cfKNW8tN4gH-13" value="" style="endArrow=none;html=1;rounded=0;fontSize=16;exitX=0;exitY=0;exitDx=0;exitDy=0;entryX=1;entryY=0.5;entryDx=0;entryDy=0;strokeWidth=2;" edge="1" parent="1" source="eAQFiIks2cfKNW8tN4gH-2" target="eAQFiIks2cfKNW8tN4gH-4">
          <mxGeometry width="50" height="50" relative="1" as="geometry">
            <mxPoint x="400" y="410" as="sourcePoint" />
            <mxPoint x="450" y="360" as="targetPoint" />
          </mxGeometry>
        </mxCell>
        <mxCell id="eAQFiIks2cfKNW8tN4gH-14" value="" style="endArrow=none;html=1;rounded=0;fontSize=16;exitX=0.25;exitY=0;exitDx=0;exitDy=0;entryX=1;entryY=1;entryDx=0;entryDy=0;strokeWidth=2;" edge="1" parent="1" source="eAQFiIks2cfKNW8tN4gH-2" target="eAQFiIks2cfKNW8tN4gH-6">
          <mxGeometry width="50" height="50" relative="1" as="geometry">
            <mxPoint x="130" y="190" as="sourcePoint" />
            <mxPoint x="90" y="180" as="targetPoint" />
          </mxGeometry>
        </mxCell>
        <mxCell id="eAQFiIks2cfKNW8tN4gH-15" value="" style="endArrow=none;html=1;rounded=0;fontSize=16;strokeWidth=2;exitX=0.5;exitY=0;exitDx=0;exitDy=0;" edge="1" parent="1" source="eAQFiIks2cfKNW8tN4gH-2" target="eAQFiIks2cfKNW8tN4gH-7">
          <mxGeometry width="50" height="50" relative="1" as="geometry">
            <mxPoint x="170" y="170" as="sourcePoint" />
            <mxPoint x="135.35533905932743" y="144.14213562373095" as="targetPoint" />
          </mxGeometry>
        </mxCell>
      </root>
    </mxGraphModel>
  </diagram>
</mxfile>
